solid OpenSCAD_Model
  facet normal 0 0 -1
    outer loop
      vertex 60 0 0
      vertex 58 2 0
      vertex 60 82 0
    endloop
  endfacet
  facet normal 0 0 -1
    outer loop
      vertex 60 0 0
      vertex 2 2 0
      vertex 58 2 0
    endloop
  endfacet
  facet normal -0 0 -1
    outer loop
      vertex 2 2 0
      vertex 0 0 0
      vertex 2 80 0
    endloop
  endfacet
  facet normal 0 0 -1
    outer loop
      vertex 0 0 0
      vertex 2 2 0
      vertex 60 0 0
    endloop
  endfacet
  facet normal 0 0 -1
    outer loop
      vertex 58 80 0
      vertex 60 82 0
      vertex 58 2 0
    endloop
  endfacet
  facet normal 0 0 -1
    outer loop
      vertex 2 80 0
      vertex 60 82 0
      vertex 58 80 0
    endloop
  endfacet
  facet normal 0 0 -1
    outer loop
      vertex 2 80 0
      vertex 0 82 0
      vertex 60 82 0
    endloop
  endfacet
  facet normal 0 0 -1
    outer loop
      vertex 0 82 0
      vertex 2 80 0
      vertex 0 0 0
    endloop
  endfacet
  facet normal 1 -0 0
    outer loop
      vertex 60 0 21.8
      vertex 60 82 0
      vertex 60 82 21.8
    endloop
  endfacet
  facet normal 1 0 0
    outer loop
      vertex 60 82 0
      vertex 60 0 21.8
      vertex 60 0 0
    endloop
  endfacet
  facet normal -1 0 0
    outer loop
      vertex 0 0 0
      vertex 0 82 21.8
      vertex 0 82 0
    endloop
  endfacet
  facet normal -1 -0 0
    outer loop
      vertex 0 82 21.8
      vertex 0 0 0
      vertex 0 0 21.8
    endloop
  endfacet
  facet normal 0 -1 0
    outer loop
      vertex 0 0 0
      vertex 60 0 21.8
      vertex 0 0 21.8
    endloop
  endfacet
  facet normal 0 -1 -0
    outer loop
      vertex 60 0 21.8
      vertex 0 0 0
      vertex 60 0 0
    endloop
  endfacet
  facet normal 0 1 -0
    outer loop
      vertex 60 82 0
      vertex 0 82 21.8
      vertex 60 82 21.8
    endloop
  endfacet
  facet normal 0 1 0
    outer loop
      vertex 0 82 21.8
      vertex 60 82 0
      vertex 0 82 0
    endloop
  endfacet
  facet normal 0 0 1
    outer loop
      vertex 17.4062 63.4885 21.8
      vertex 60 82 21.8
      vertex 17.46 64 21.8
    endloop
  endfacet
  facet normal 0 0 1
    outer loop
      vertex 60 82 21.8
      vertex 17.4062 64.5115 21.8
      vertex 17.46 64 21.8
    endloop
  endfacet
  facet normal 0 0 1
    outer loop
      vertex 60 82 21.8
      vertex 17.2473 65.0006 21.8
      vertex 17.4062 64.5115 21.8
    endloop
  endfacet
  facet normal 0 0 1
    outer loop
      vertex 60 82 21.8
      vertex 16.9902 65.446 21.8
      vertex 17.2473 65.0006 21.8
    endloop
  endfacet
  facet normal 0 0 1
    outer loop
      vertex 60 82 21.8
      vertex 16.6461 65.8281 21.8
      vertex 16.9902 65.446 21.8
    endloop
  endfacet
  facet normal 0 0 1
    outer loop
      vertex 60 82 21.8
      vertex 16.23 66.1304 21.8
      vertex 16.6461 65.8281 21.8
    endloop
  endfacet
  facet normal -0 0 1
    outer loop
      vertex 0 82 21.8
      vertex 16.23 66.1304 21.8
      vertex 60 82 21.8
    endloop
  endfacet
  facet normal 0 0 1
    outer loop
      vertex 16.23 66.1304 21.8
      vertex 0 82 21.8
      vertex 15.7602 66.3396 21.8
    endloop
  endfacet
  facet normal 0 0 1
    outer loop
      vertex 15.7602 66.3396 21.8
      vertex 0 82 21.8
      vertex 15.2571 66.4465 21.8
    endloop
  endfacet
  facet normal 0 0 1
    outer loop
      vertex 15.2571 66.4465 21.8
      vertex 0 82 21.8
      vertex 14.7429 66.4465 21.8
    endloop
  endfacet
  facet normal 0 0 1
    outer loop
      vertex 12.5938 64.5115 21.8
      vertex 0 82 21.8
      vertex 12.54 64 21.8
    endloop
  endfacet
  facet normal 0 0 1
    outer loop
      vertex 12.7527 65.0006 21.8
      vertex 0 82 21.8
      vertex 12.5938 64.5115 21.8
    endloop
  endfacet
  facet normal 0 0 1
    outer loop
      vertex 13.0098 65.446 21.8
      vertex 0 82 21.8
      vertex 12.7527 65.0006 21.8
    endloop
  endfacet
  facet normal 0 0 1
    outer loop
      vertex 13.3539 65.8281 21.8
      vertex 0 82 21.8
      vertex 13.0098 65.446 21.8
    endloop
  endfacet
  facet normal 0 0 1
    outer loop
      vertex 13.77 66.1304 21.8
      vertex 0 82 21.8
      vertex 13.3539 65.8281 21.8
    endloop
  endfacet
  facet normal 0 0 1
    outer loop
      vertex 14.2398 66.3396 21.8
      vertex 0 82 21.8
      vertex 13.77 66.1304 21.8
    endloop
  endfacet
  facet normal 0 0 1
    outer loop
      vertex 14.7429 66.4465 21.8
      vertex 0 82 21.8
      vertex 14.2398 66.3396 21.8
    endloop
  endfacet
  facet normal 0 0 1
    outer loop
      vertex 17.2473 62.9994 21.8
      vertex 60 82 21.8
      vertex 17.4062 63.4885 21.8
    endloop
  endfacet
  facet normal 0 0 1
    outer loop
      vertex 16.9902 62.554 21.8
      vertex 60 82 21.8
      vertex 17.2473 62.9994 21.8
    endloop
  endfacet
  facet normal 0 0 1
    outer loop
      vertex 60 82 21.8
      vertex 16.9902 62.554 21.8
      vertex 60 0 21.8
    endloop
  endfacet
  facet normal -0 0 1
    outer loop
      vertex 16.6461 62.1719 21.8
      vertex 60 0 21.8
      vertex 16.9902 62.554 21.8
    endloop
  endfacet
  facet normal -0 0 1
    outer loop
      vertex 16.23 61.8696 21.8
      vertex 60 0 21.8
      vertex 16.6461 62.1719 21.8
    endloop
  endfacet
  facet normal -0 0 1
    outer loop
      vertex 15.7602 61.6604 21.8
      vertex 60 0 21.8
      vertex 16.23 61.8696 21.8
    endloop
  endfacet
  facet normal 0 0 1
    outer loop
      vertex 0 0 21.8
      vertex 15.7602 61.6604 21.8
      vertex 15.2571 61.5535 21.8
    endloop
  endfacet
  facet normal 0 0 1
    outer loop
      vertex 0 0 21.8
      vertex 15.2571 61.5535 21.8
      vertex 14.7429 61.5535 21.8
    endloop
  endfacet
  facet normal 0 0 1
    outer loop
      vertex 0 0 21.8
      vertex 14.7429 61.5535 21.8
      vertex 14.2398 61.6604 21.8
    endloop
  endfacet
  facet normal 0 0 1
    outer loop
      vertex 0 0 21.8
      vertex 14.2398 61.6604 21.8
      vertex 13.77 61.8696 21.8
    endloop
  endfacet
  facet normal 0 0 1
    outer loop
      vertex 0 0 21.8
      vertex 13.77 61.8696 21.8
      vertex 13.3539 62.1719 21.8
    endloop
  endfacet
  facet normal 0 0 1
    outer loop
      vertex 0 0 21.8
      vertex 13.3539 62.1719 21.8
      vertex 13.0098 62.554 21.8
    endloop
  endfacet
  facet normal 0 0 1
    outer loop
      vertex 0 82 21.8
      vertex 12.5938 63.4885 21.8
      vertex 12.54 64 21.8
    endloop
  endfacet
  facet normal 0 0 1
    outer loop
      vertex 0 82 21.8
      vertex 12.7527 62.9994 21.8
      vertex 12.5938 63.4885 21.8
    endloop
  endfacet
  facet normal 0 0 1
    outer loop
      vertex 0 0 21.8
      vertex 12.7527 62.9994 21.8
      vertex 0 82 21.8
    endloop
  endfacet
  facet normal 0 0 1
    outer loop
      vertex 15.7602 61.6604 21.8
      vertex 0 0 21.8
      vertex 60 0 21.8
    endloop
  endfacet
  facet normal 0 0 1
    outer loop
      vertex 12.7527 62.9994 21.8
      vertex 0 0 21.8
      vertex 13.0098 62.554 21.8
    endloop
  endfacet
  facet normal -1 0 0
    outer loop
      vertex 58 2 0
      vertex 58 80 21
      vertex 58 80 0
    endloop
  endfacet
  facet normal -1 -0 0
    outer loop
      vertex 58 80 21
      vertex 58 2 0
      vertex 58 2 21
    endloop
  endfacet
  facet normal 1 -0 0
    outer loop
      vertex 2 2 21
      vertex 2 80 0
      vertex 2 80 21
    endloop
  endfacet
  facet normal 1 0 0
    outer loop
      vertex 2 80 0
      vertex 2 2 21
      vertex 2 2 0
    endloop
  endfacet
  facet normal 0 1 -0
    outer loop
      vertex 58 2 0
      vertex 2 2 21
      vertex 58 2 21
    endloop
  endfacet
  facet normal 0 1 0
    outer loop
      vertex 2 2 21
      vertex 58 2 0
      vertex 2 2 0
    endloop
  endfacet
  facet normal 0 -1 0
    outer loop
      vertex 2 80 0
      vertex 58 80 21
      vertex 2 80 21
    endloop
  endfacet
  facet normal 0 -1 -0
    outer loop
      vertex 58 80 21
      vertex 2 80 0
      vertex 58 80 0
    endloop
  endfacet
  facet normal 0 0 -1
    outer loop
      vertex 16.9902 62.554 21
      vertex 58 80 21
      vertex 58 2 21
    endloop
  endfacet
  facet normal 0 0 -1
    outer loop
      vertex 58 80 21
      vertex 17.4062 63.4885 21
      vertex 17.46 64 21
    endloop
  endfacet
  facet normal 0 0 -1
    outer loop
      vertex 58 80 21
      vertex 17.2473 62.9994 21
      vertex 17.4062 63.4885 21
    endloop
  endfacet
  facet normal 0 0 -1
    outer loop
      vertex 58 80 21
      vertex 16.9902 62.554 21
      vertex 17.2473 62.9994 21
    endloop
  endfacet
  facet normal 0 0 -1
    outer loop
      vertex 58 2 21
      vertex 16.6461 62.1719 21
      vertex 16.9902 62.554 21
    endloop
  endfacet
  facet normal 0 0 -1
    outer loop
      vertex 58 2 21
      vertex 16.23 61.8696 21
      vertex 16.6461 62.1719 21
    endloop
  endfacet
  facet normal 0 0 -1
    outer loop
      vertex 58 2 21
      vertex 15.7602 61.6604 21
      vertex 16.23 61.8696 21
    endloop
  endfacet
  facet normal 0 0 -1
    outer loop
      vertex 2 2 21
      vertex 15.7602 61.6604 21
      vertex 58 2 21
    endloop
  endfacet
  facet normal 0 0 -1
    outer loop
      vertex 15.7602 61.6604 21
      vertex 2 2 21
      vertex 15.2571 61.5535 21
    endloop
  endfacet
  facet normal -0 0 -1
    outer loop
      vertex 15.2571 61.5535 21
      vertex 2 2 21
      vertex 14.7429 61.5535 21
    endloop
  endfacet
  facet normal -0 0 -1
    outer loop
      vertex 14.7429 61.5535 21
      vertex 2 2 21
      vertex 14.2398 61.6604 21
    endloop
  endfacet
  facet normal -0 0 -1
    outer loop
      vertex 14.2398 61.6604 21
      vertex 2 2 21
      vertex 13.77 61.8696 21
    endloop
  endfacet
  facet normal -0 0 -1
    outer loop
      vertex 13.77 61.8696 21
      vertex 2 2 21
      vertex 13.3539 62.1719 21
    endloop
  endfacet
  facet normal 0 0 -1
    outer loop
      vertex 12.7527 62.9994 21
      vertex 2 80 21
      vertex 12.5938 63.4885 21
    endloop
  endfacet
  facet normal 0 0 -1
    outer loop
      vertex 2 80 21
      vertex 12.7527 62.9994 21
      vertex 2 2 21
    endloop
  endfacet
  facet normal -0 0 -1
    outer loop
      vertex 13.0098 62.554 21
      vertex 2 2 21
      vertex 12.7527 62.9994 21
    endloop
  endfacet
  facet normal -0 0 -1
    outer loop
      vertex 13.3539 62.1719 21
      vertex 2 2 21
      vertex 13.0098 62.554 21
    endloop
  endfacet
  facet normal 0 0 -1
    outer loop
      vertex 17.4062 64.5115 21
      vertex 58 80 21
      vertex 17.46 64 21
    endloop
  endfacet
  facet normal 0 0 -1
    outer loop
      vertex 17.2473 65.0006 21
      vertex 58 80 21
      vertex 17.4062 64.5115 21
    endloop
  endfacet
  facet normal 0 0 -1
    outer loop
      vertex 16.9902 65.446 21
      vertex 58 80 21
      vertex 17.2473 65.0006 21
    endloop
  endfacet
  facet normal 0 0 -1
    outer loop
      vertex 16.6461 65.8281 21
      vertex 58 80 21
      vertex 16.9902 65.446 21
    endloop
  endfacet
  facet normal 0 0 -1
    outer loop
      vertex 16.23 66.1304 21
      vertex 58 80 21
      vertex 16.6461 65.8281 21
    endloop
  endfacet
  facet normal 0 0 -1
    outer loop
      vertex 2 80 21
      vertex 16.23 66.1304 21
      vertex 15.7602 66.3396 21
    endloop
  endfacet
  facet normal 0 0 -1
    outer loop
      vertex 2 80 21
      vertex 15.7602 66.3396 21
      vertex 15.2571 66.4465 21
    endloop
  endfacet
  facet normal 0 0 -1
    outer loop
      vertex 2 80 21
      vertex 15.2571 66.4465 21
      vertex 14.7429 66.4465 21
    endloop
  endfacet
  facet normal 0 0 -1
    outer loop
      vertex 2 80 21
      vertex 14.7429 66.4465 21
      vertex 14.2398 66.3396 21
    endloop
  endfacet
  facet normal 0 0 -1
    outer loop
      vertex 12.5938 63.4885 21
      vertex 2 80 21
      vertex 12.54 64 21
    endloop
  endfacet
  facet normal 0 0 -1
    outer loop
      vertex 16.23 66.1304 21
      vertex 2 80 21
      vertex 58 80 21
    endloop
  endfacet
  facet normal 0 0 -1
    outer loop
      vertex 13.77 66.1304 21
      vertex 2 80 21
      vertex 14.2398 66.3396 21
    endloop
  endfacet
  facet normal 0 0 -1
    outer loop
      vertex 13.3539 65.8281 21
      vertex 2 80 21
      vertex 13.77 66.1304 21
    endloop
  endfacet
  facet normal 0 0 -1
    outer loop
      vertex 13.0098 65.446 21
      vertex 2 80 21
      vertex 13.3539 65.8281 21
    endloop
  endfacet
  facet normal 0 0 -1
    outer loop
      vertex 12.7527 65.0006 21
      vertex 2 80 21
      vertex 13.0098 65.446 21
    endloop
  endfacet
  facet normal 0 0 -1
    outer loop
      vertex 12.5938 64.5115 21
      vertex 2 80 21
      vertex 12.7527 65.0006 21
    endloop
  endfacet
  facet normal 0 0 -1
    outer loop
      vertex 12.54 64 21
      vertex 2 80 21
      vertex 12.5938 64.5115 21
    endloop
  endfacet
  facet normal -0.994522 -0.104529 0
    outer loop
      vertex 17.46 64 21
      vertex 17.4062 64.5115 21.8
      vertex 17.4062 64.5115 21
    endloop
  endfacet
  facet normal -0.994522 -0.104529 0
    outer loop
      vertex 17.4062 64.5115 21.8
      vertex 17.46 64 21
      vertex 17.46 64 21.8
    endloop
  endfacet
  facet normal 0 -1 0
    outer loop
      vertex 14.7429 66.4465 21
      vertex 15.2571 66.4465 21.8
      vertex 14.7429 66.4465 21.8
    endloop
  endfacet
  facet normal 0 -1 -0
    outer loop
      vertex 15.2571 66.4465 21.8
      vertex 14.7429 66.4465 21
      vertex 15.2571 66.4465 21
    endloop
  endfacet
  facet normal -0.743141 -0.669135 0
    outer loop
      vertex 16.9902 65.446 21
      vertex 16.6461 65.8281 21.8
      vertex 16.6461 65.8281 21
    endloop
  endfacet
  facet normal -0.743141 -0.669135 0
    outer loop
      vertex 16.6461 65.8281 21.8
      vertex 16.9902 65.446 21
      vertex 16.9902 65.446 21.8
    endloop
  endfacet
  facet normal 0.743141 -0.669135 0
    outer loop
      vertex 13.0098 65.446 21.8
      vertex 13.3539 65.8281 21
      vertex 13.3539 65.8281 21.8
    endloop
  endfacet
  facet normal 0.743141 -0.669135 0
    outer loop
      vertex 13.3539 65.8281 21
      vertex 13.0098 65.446 21.8
      vertex 13.0098 65.446 21
    endloop
  endfacet
  facet normal 0.406734 -0.913546 0
    outer loop
      vertex 13.77 66.1304 21
      vertex 14.2398 66.3396 21.8
      vertex 13.77 66.1304 21.8
    endloop
  endfacet
  facet normal 0.406734 -0.913546 0
    outer loop
      vertex 14.2398 66.3396 21.8
      vertex 13.77 66.1304 21
      vertex 14.2398 66.3396 21
    endloop
  endfacet
  facet normal -0.866025 -0.5 0
    outer loop
      vertex 17.2473 65.0006 21
      vertex 16.9902 65.446 21.8
      vertex 16.9902 65.446 21
    endloop
  endfacet
  facet normal -0.866025 -0.5 0
    outer loop
      vertex 16.9902 65.446 21.8
      vertex 17.2473 65.0006 21
      vertex 17.2473 65.0006 21.8
    endloop
  endfacet
  facet normal -0.951058 -0.309013 0
    outer loop
      vertex 17.4062 64.5115 21
      vertex 17.2473 65.0006 21.8
      vertex 17.2473 65.0006 21
    endloop
  endfacet
  facet normal -0.951058 -0.309013 0
    outer loop
      vertex 17.2473 65.0006 21.8
      vertex 17.4062 64.5115 21
      vertex 17.4062 64.5115 21.8
    endloop
  endfacet
  facet normal -0.406734 -0.913546 0
    outer loop
      vertex 15.7602 66.3396 21
      vertex 16.23 66.1304 21.8
      vertex 15.7602 66.3396 21.8
    endloop
  endfacet
  facet normal -0.406734 -0.913546 -0
    outer loop
      vertex 16.23 66.1304 21.8
      vertex 15.7602 66.3396 21
      vertex 16.23 66.1304 21
    endloop
  endfacet
  facet normal -0.207914 -0.978147 0
    outer loop
      vertex 15.2571 66.4465 21
      vertex 15.7602 66.3396 21.8
      vertex 15.2571 66.4465 21.8
    endloop
  endfacet
  facet normal -0.207914 -0.978147 -0
    outer loop
      vertex 15.7602 66.3396 21.8
      vertex 15.2571 66.4465 21
      vertex 15.7602 66.3396 21
    endloop
  endfacet
  facet normal -0.587792 -0.809012 0
    outer loop
      vertex 16.23 66.1304 21
      vertex 16.6461 65.8281 21.8
      vertex 16.23 66.1304 21.8
    endloop
  endfacet
  facet normal -0.587792 -0.809012 -0
    outer loop
      vertex 16.6461 65.8281 21.8
      vertex 16.23 66.1304 21
      vertex 16.6461 65.8281 21
    endloop
  endfacet
  facet normal 0.951057 -0.309015 0
    outer loop
      vertex 12.5938 64.5115 21.8
      vertex 12.7527 65.0006 21
      vertex 12.7527 65.0006 21.8
    endloop
  endfacet
  facet normal 0.951057 -0.309015 0
    outer loop
      vertex 12.7527 65.0006 21
      vertex 12.5938 64.5115 21.8
      vertex 12.5938 64.5115 21
    endloop
  endfacet
  facet normal 0.866026 -0.499999 0
    outer loop
      vertex 12.7527 65.0006 21.8
      vertex 13.0098 65.446 21
      vertex 13.0098 65.446 21.8
    endloop
  endfacet
  facet normal 0.866026 -0.499999 0
    outer loop
      vertex 13.0098 65.446 21
      vertex 12.7527 65.0006 21.8
      vertex 12.7527 65.0006 21
    endloop
  endfacet
  facet normal 0.994522 -0.104529 0
    outer loop
      vertex 12.54 64 21.8
      vertex 12.5938 64.5115 21
      vertex 12.5938 64.5115 21.8
    endloop
  endfacet
  facet normal 0.994522 -0.104529 0
    outer loop
      vertex 12.5938 64.5115 21
      vertex 12.54 64 21.8
      vertex 12.54 64 21
    endloop
  endfacet
  facet normal 0.587792 -0.809012 0
    outer loop
      vertex 13.3539 65.8281 21
      vertex 13.77 66.1304 21.8
      vertex 13.3539 65.8281 21.8
    endloop
  endfacet
  facet normal 0.587792 -0.809012 0
    outer loop
      vertex 13.77 66.1304 21.8
      vertex 13.3539 65.8281 21
      vertex 13.77 66.1304 21
    endloop
  endfacet
  facet normal 0.207914 -0.978147 0
    outer loop
      vertex 14.2398 66.3396 21
      vertex 14.7429 66.4465 21.8
      vertex 14.2398 66.3396 21.8
    endloop
  endfacet
  facet normal 0.207914 -0.978147 0
    outer loop
      vertex 14.7429 66.4465 21.8
      vertex 14.2398 66.3396 21
      vertex 14.7429 66.4465 21
    endloop
  endfacet
  facet normal -0.994522 0.104528 0
    outer loop
      vertex 17.4062 63.4885 21
      vertex 17.46 64 21.8
      vertex 17.46 64 21
    endloop
  endfacet
  facet normal -0.994522 0.104528 0
    outer loop
      vertex 17.46 64 21.8
      vertex 17.4062 63.4885 21
      vertex 17.4062 63.4885 21.8
    endloop
  endfacet
  facet normal -0.207914 0.978147 0
    outer loop
      vertex 15.7602 61.6604 21
      vertex 15.2571 61.5535 21.8
      vertex 15.7602 61.6604 21.8
    endloop
  endfacet
  facet normal -0.207914 0.978147 0
    outer loop
      vertex 15.2571 61.5535 21.8
      vertex 15.7602 61.6604 21
      vertex 15.2571 61.5535 21
    endloop
  endfacet
  facet normal -0.587787 0.809015 0
    outer loop
      vertex 16.6461 62.1719 21
      vertex 16.23 61.8696 21.8
      vertex 16.6461 62.1719 21.8
    endloop
  endfacet
  facet normal -0.587787 0.809015 0
    outer loop
      vertex 16.23 61.8696 21.8
      vertex 16.6461 62.1719 21
      vertex 16.23 61.8696 21
    endloop
  endfacet
  facet normal -0.866025 0.5 0
    outer loop
      vertex 16.9902 62.554 21
      vertex 17.2473 62.9994 21.8
      vertex 17.2473 62.9994 21
    endloop
  endfacet
  facet normal -0.866025 0.5 0
    outer loop
      vertex 17.2473 62.9994 21.8
      vertex 16.9902 62.554 21
      vertex 16.9902 62.554 21.8
    endloop
  endfacet
  facet normal 0.587787 0.809015 -0
    outer loop
      vertex 13.77 61.8696 21
      vertex 13.3539 62.1719 21.8
      vertex 13.77 61.8696 21.8
    endloop
  endfacet
  facet normal 0.587787 0.809015 0
    outer loop
      vertex 13.3539 62.1719 21.8
      vertex 13.77 61.8696 21
      vertex 13.3539 62.1719 21
    endloop
  endfacet
  facet normal 0.207914 0.978147 -0
    outer loop
      vertex 14.7429 61.5535 21
      vertex 14.2398 61.6604 21.8
      vertex 14.7429 61.5535 21.8
    endloop
  endfacet
  facet normal 0.207914 0.978147 0
    outer loop
      vertex 14.2398 61.6604 21.8
      vertex 14.7429 61.5535 21
      vertex 14.2398 61.6604 21
    endloop
  endfacet
  facet normal 0.743144 0.669132 0
    outer loop
      vertex 13.3539 62.1719 21.8
      vertex 13.0098 62.554 21
      vertex 13.0098 62.554 21.8
    endloop
  endfacet
  facet normal 0.743144 0.669132 0
    outer loop
      vertex 13.0098 62.554 21
      vertex 13.3539 62.1719 21.8
      vertex 13.3539 62.1719 21
    endloop
  endfacet
  facet normal 0.951056 0.309017 0
    outer loop
      vertex 12.7527 62.9994 21.8
      vertex 12.5938 63.4885 21
      vertex 12.5938 63.4885 21.8
    endloop
  endfacet
  facet normal 0.951056 0.309017 0
    outer loop
      vertex 12.5938 63.4885 21
      vertex 12.7527 62.9994 21.8
      vertex 12.7527 62.9994 21
    endloop
  endfacet
  facet normal 0.994522 0.104528 0
    outer loop
      vertex 12.5938 63.4885 21.8
      vertex 12.54 64 21
      vertex 12.54 64 21.8
    endloop
  endfacet
  facet normal 0.994522 0.104528 0
    outer loop
      vertex 12.54 64 21
      vertex 12.5938 63.4885 21.8
      vertex 12.5938 63.4885 21
    endloop
  endfacet
  facet normal -0.406734 0.913546 0
    outer loop
      vertex 16.23 61.8696 21
      vertex 15.7602 61.6604 21.8
      vertex 16.23 61.8696 21.8
    endloop
  endfacet
  facet normal -0.406734 0.913546 0
    outer loop
      vertex 15.7602 61.6604 21.8
      vertex 16.23 61.8696 21
      vertex 15.7602 61.6604 21
    endloop
  endfacet
  facet normal -0.743144 0.669132 0
    outer loop
      vertex 16.6461 62.1719 21
      vertex 16.9902 62.554 21.8
      vertex 16.9902 62.554 21
    endloop
  endfacet
  facet normal -0.743144 0.669132 0
    outer loop
      vertex 16.9902 62.554 21.8
      vertex 16.6461 62.1719 21
      vertex 16.6461 62.1719 21.8
    endloop
  endfacet
  facet normal -0.951057 0.309015 0
    outer loop
      vertex 17.2473 62.9994 21
      vertex 17.4062 63.4885 21.8
      vertex 17.4062 63.4885 21
    endloop
  endfacet
  facet normal -0.951057 0.309015 0
    outer loop
      vertex 17.4062 63.4885 21.8
      vertex 17.2473 62.9994 21
      vertex 17.2473 62.9994 21.8
    endloop
  endfacet
  facet normal 0.406734 0.913546 -0
    outer loop
      vertex 14.2398 61.6604 21
      vertex 13.77 61.8696 21.8
      vertex 14.2398 61.6604 21.8
    endloop
  endfacet
  facet normal 0.406734 0.913546 0
    outer loop
      vertex 13.77 61.8696 21.8
      vertex 14.2398 61.6604 21
      vertex 13.77 61.8696 21
    endloop
  endfacet
  facet normal 0 1 -0
    outer loop
      vertex 15.2571 61.5535 21
      vertex 14.7429 61.5535 21.8
      vertex 15.2571 61.5535 21.8
    endloop
  endfacet
  facet normal 0 1 0
    outer loop
      vertex 14.7429 61.5535 21.8
      vertex 15.2571 61.5535 21
      vertex 14.7429 61.5535 21
    endloop
  endfacet
  facet normal 0.866026 0.499999 0
    outer loop
      vertex 13.0098 62.554 21.8
      vertex 12.7527 62.9994 21
      vertex 12.7527 62.9994 21.8
    endloop
  endfacet
  facet normal 0.866026 0.499999 0
    outer loop
      vertex 12.7527 62.9994 21
      vertex 13.0098 62.554 21.8
      vertex 13.0098 62.554 21
    endloop
  endfacet
endsolid OpenSCAD_Model
